<mxfile host="app.diagrams.net" modified="2021-09-13T08:36:58.304Z" agent="5.0 (Windows NT 10.0; Win64; x64) AppleWebKit/537.36 (KHTML, like Gecko) Chrome/93.0.4577.63 Safari/537.36" etag="jMMiDoh84VEg4hd4fyg5" version="15.0.6" type="github">
  <diagram id="Av81qHHW-NDDtR5jv338" name="Page-1">
    <mxGraphModel dx="868" dy="450" grid="1" gridSize="10" guides="1" tooltips="1" connect="1" arrows="1" fold="1" page="1" pageScale="1" pageWidth="827" pageHeight="1169" math="0" shadow="0">
      <root>
        <mxCell id="0" />
        <mxCell id="1" parent="0" />
        <mxCell id="gg0U_hLzDqzyttBq9Cjp-1" value="Студент" style="shape=umlActor;verticalLabelPosition=bottom;verticalAlign=top;html=1;outlineConnect=0;" vertex="1" parent="1">
          <mxGeometry x="30" y="20" width="50" height="80" as="geometry" />
        </mxCell>
        <mxCell id="gg0U_hLzDqzyttBq9Cjp-2" value="майстат" style="rounded=0;whiteSpace=wrap;html=1;" vertex="1" parent="1">
          <mxGeometry x="160" y="30" width="120" height="60" as="geometry" />
        </mxCell>
        <mxCell id="gg0U_hLzDqzyttBq9Cjp-3" value="сервер" style="rounded=0;whiteSpace=wrap;html=1;" vertex="1" parent="1">
          <mxGeometry x="354" y="30" width="120" height="60" as="geometry" />
        </mxCell>
        <mxCell id="gg0U_hLzDqzyttBq9Cjp-4" value="бд" style="rounded=0;whiteSpace=wrap;html=1;" vertex="1" parent="1">
          <mxGeometry x="590" y="30" width="120" height="60" as="geometry" />
        </mxCell>
        <mxCell id="gg0U_hLzDqzyttBq9Cjp-5" value="" style="endArrow=none;html=1;entryX=0.5;entryY=1;entryDx=0;entryDy=0;" edge="1" parent="1" target="gg0U_hLzDqzyttBq9Cjp-2">
          <mxGeometry width="50" height="50" relative="1" as="geometry">
            <mxPoint x="220" y="602" as="sourcePoint" />
            <mxPoint x="440" y="230" as="targetPoint" />
          </mxGeometry>
        </mxCell>
        <mxCell id="gg0U_hLzDqzyttBq9Cjp-6" value="" style="endArrow=none;html=1;entryX=0.5;entryY=1;entryDx=0;entryDy=0;" edge="1" parent="1">
          <mxGeometry width="50" height="50" relative="1" as="geometry">
            <mxPoint x="413" y="602" as="sourcePoint" />
            <mxPoint x="413" y="90" as="targetPoint" />
          </mxGeometry>
        </mxCell>
        <mxCell id="gg0U_hLzDqzyttBq9Cjp-8" value="" style="endArrow=none;html=1;entryX=0.5;entryY=1;entryDx=0;entryDy=0;" edge="1" parent="1">
          <mxGeometry width="50" height="50" relative="1" as="geometry">
            <mxPoint x="649.5" y="602" as="sourcePoint" />
            <mxPoint x="649.5" y="90" as="targetPoint" />
          </mxGeometry>
        </mxCell>
        <mxCell id="gg0U_hLzDqzyttBq9Cjp-9" value="" style="endArrow=none;html=1;entryX=0.5;entryY=1;entryDx=0;entryDy=0;startArrow=none;" edge="1" parent="1" source="gg0U_hLzDqzyttBq9Cjp-11">
          <mxGeometry width="50" height="50" relative="1" as="geometry">
            <mxPoint x="55" y="600" as="sourcePoint" />
            <mxPoint x="54.5" y="130" as="targetPoint" />
          </mxGeometry>
        </mxCell>
        <mxCell id="gg0U_hLzDqzyttBq9Cjp-11" value="" style="rounded=0;whiteSpace=wrap;html=1;" vertex="1" parent="1">
          <mxGeometry x="45" y="140" width="20" height="30" as="geometry" />
        </mxCell>
        <mxCell id="gg0U_hLzDqzyttBq9Cjp-12" value="" style="endArrow=none;html=1;entryX=0.5;entryY=1;entryDx=0;entryDy=0;" edge="1" parent="1" target="gg0U_hLzDqzyttBq9Cjp-11">
          <mxGeometry width="50" height="50" relative="1" as="geometry">
            <mxPoint x="55" y="600" as="sourcePoint" />
            <mxPoint x="54.5" y="130" as="targetPoint" />
          </mxGeometry>
        </mxCell>
        <mxCell id="gg0U_hLzDqzyttBq9Cjp-13" value="" style="endArrow=classic;html=1;exitX=1;exitY=1;exitDx=0;exitDy=0;" edge="1" parent="1" source="gg0U_hLzDqzyttBq9Cjp-11">
          <mxGeometry width="50" height="50" relative="1" as="geometry">
            <mxPoint x="390" y="110" as="sourcePoint" />
            <mxPoint x="200" y="170" as="targetPoint" />
          </mxGeometry>
        </mxCell>
      </root>
    </mxGraphModel>
  </diagram>
</mxfile>
